<svg width="32" height="32" viewBox="0 0 32 32" fill="none" xmlns="http://www.w3.org/2000/svg">
<path d="M16 0C7.16344 0 0 7.16344 0 16C0 24.8366 7.16344 32 16 32C24.8366 32 32 24.8366 32 16C32 7.16344 24.8366 0 16 0ZM16 2.62999C19.0415 2.62999 21.8439 3.65045 24.09 5.36L21.8 7.65004C20.1558 6.50553 18.1559 5.84 16 5.84C13.8441 5.84 11.8442 6.50546 10.2 7.64997L7.90999 5.36C10.1561 3.65038 12.9585 2.62999 16 2.62999ZM5.36 7.90999L7.64997 10.2C6.50546 11.8442 5.84 13.8441 5.84 16C5.84 18.1559 6.50546 20.1558 7.64997 21.8L5.36 24.09C3.65038 21.8419 2.62999 19.0415 2.62999 16C2.62999 12.9585 3.65045 10.1561 5.36 7.90999ZM26.64 7.90999C28.3496 10.1561 29.37 12.9585 29.37 16C29.37 19.0415 28.3495 21.8419 26.64 24.09L24.35 21.8C25.4945 20.1558 26.16 18.1559 26.16 16C26.16 13.8441 25.4945 11.8442 24.35 10.2L26.64 7.90999ZM16 8.81001C19.9727 8.81001 23.19 12.0273 23.19 16C23.19 19.9727 19.9728 23.2 16 23.2C12.0272 23.2 8.81001 19.9727 8.81001 16C8.81001 12.0273 12.0272 8.81001 16 8.81001ZM16 12.3001C13.9582 12.3001 12.3 13.9583 12.3 16C12.3 18.0417 13.9582 19.7 16 19.7C18.0418 19.7 19.7 18.0418 19.7 16C19.7 13.9582 18.0417 12.3 16 12.3V12.3001ZM10.2 24.35C11.8442 25.4945 13.8441 26.1599 16 26.1599C18.1559 26.1599 20.1558 25.4945 21.8 24.35L24.1 26.6499C21.853 28.364 19.0439 29.3799 16 29.3799C12.9561 29.3799 10.147 28.364 7.89998 26.6499L10.2 24.35Z" fill="#333333"/>
</svg>
