<svg width="87" height="17" viewBox="0 0 87 17" fill="none" xmlns="http://www.w3.org/2000/svg">
<path d="M6.58721 16.6912C5.07895 16.6912 3.79468 16.3552 2.73442 15.6832C1.68908 14.9963 0.957348 14.048 0.539215 12.8384L2.75682 11.5392C3.38402 13.3013 4.68322 14.1824 6.65442 14.1824C7.61015 14.1824 8.33442 13.9957 8.82722 13.6224C9.32002 13.2491 9.56642 12.7488 9.56642 12.1216C9.56642 11.4944 9.30508 11.0091 8.78242 10.6656C8.25975 10.3221 7.33388 9.9488 6.00482 9.5456C4.64588 9.1424 3.54828 8.66453 2.71202 8.112C1.69655 7.3952 1.18882 6.3424 1.18882 4.9536C1.18882 3.5648 1.68162 2.4672 2.66722 1.6608C3.63788 0.839464 4.82508 0.428797 6.22882 0.428797C7.46828 0.428797 8.55842 0.73493 9.49922 1.3472C10.4549 1.94453 11.1867 2.78826 11.6944 3.8784L9.52162 5.1328C8.86455 3.66933 7.76695 2.9376 6.22882 2.9376C5.48215 2.9376 4.88482 3.1168 4.43682 3.4752C3.98882 3.81866 3.76482 4.28906 3.76482 4.8864C3.76482 5.4688 3.98882 5.93173 4.43682 6.2752C4.88482 6.60373 5.71362 6.95466 6.92322 7.328C7.66988 7.58186 8.10295 7.7312 8.22242 7.776C8.41655 7.83573 8.80482 7.98506 9.38722 8.224C9.86508 8.41813 10.2459 8.6272 10.5296 8.8512C11.6944 9.76213 12.232 10.8373 12.1424 12.0768C12.1424 13.4955 11.6272 14.6229 10.5968 15.4592C9.59628 16.2805 8.25975 16.6912 6.58721 16.6912Z" fill="#4165FF"/>
<path d="M22.6716 11.2032V5.2H25.0908V16.4H22.6716V14.9664C21.925 16.1163 20.7676 16.6912 19.1996 16.6912C17.9004 16.6912 16.8551 16.2805 16.0636 15.4592C15.2871 14.6229 14.8988 13.4955 14.8988 12.0768V5.2H17.318V11.8304C17.318 12.6667 17.542 13.3088 17.99 13.7568C18.438 14.2048 19.0503 14.4288 19.8268 14.4288C20.7079 14.4288 21.4023 14.16 21.91 13.6224C22.4178 13.0699 22.6716 12.2635 22.6716 11.2032Z" fill="#4165FF"/>
<path d="M34.1021 16.6912C32.4147 16.6912 31.0035 16.1237 29.8685 14.9888C28.7485 13.8389 28.1885 12.4427 28.1885 10.8C28.1885 9.12746 28.7485 7.7312 29.8685 6.6112C31.0035 5.47626 32.4147 4.9088 34.1021 4.9088C35.1923 4.9088 36.1853 5.17013 37.0813 5.6928C37.9773 6.21546 38.6493 6.91733 39.0973 7.7984L37.0141 9.008C36.7603 8.4704 36.372 8.05226 35.8493 7.7536C35.3416 7.44 34.7517 7.2832 34.0797 7.2832C33.0941 7.2832 32.2653 7.6192 31.5933 8.2912C30.9363 8.97813 30.6077 9.8144 30.6077 10.8C30.6077 11.7856 30.9363 12.6219 31.5933 13.3088C32.2653 13.9808 33.0941 14.3168 34.0797 14.3168C34.7368 14.3168 35.3266 14.1675 35.8493 13.8688C36.3869 13.5552 36.7901 13.1296 37.0589 12.592L39.1421 13.7792C38.6642 14.6752 37.9699 15.3845 37.0589 15.9072C36.1629 16.4299 35.1773 16.6912 34.1021 16.6912Z" fill="#4165FF"/>
<path d="M46.8981 16.6912C45.2107 16.6912 43.7994 16.1237 42.6645 14.9888C41.5445 13.8389 40.9845 12.4427 40.9845 10.8C40.9845 9.12746 41.5445 7.7312 42.6645 6.6112C43.7994 5.47626 45.2107 4.9088 46.8981 4.9088C47.9883 4.9088 48.9813 5.17013 49.8773 5.6928C50.7733 6.21546 51.4453 6.91733 51.8933 7.7984L49.8101 9.008C49.5563 8.4704 49.168 8.05226 48.6453 7.7536C48.1376 7.44 47.5477 7.2832 46.8757 7.2832C45.8901 7.2832 45.0613 7.6192 44.3893 8.2912C43.7323 8.97813 43.4037 9.8144 43.4037 10.8C43.4037 11.7856 43.7323 12.6219 44.3893 13.3088C45.0613 13.9808 45.8901 14.3168 46.8757 14.3168C47.5328 14.3168 48.1227 14.1675 48.6453 13.8688C49.1829 13.5552 49.5861 13.1296 49.8549 12.592L51.9381 13.7792C51.4603 14.6752 50.7659 15.3845 49.8549 15.9072C48.9589 16.4299 47.9733 16.6912 46.8981 16.6912Z" fill="#4165FF"/>
<path d="M65.2269 11.8304H56.3117C56.4909 12.6667 56.8941 13.3163 57.5213 13.7792C58.1635 14.2421 58.9549 14.4736 59.8957 14.4736C61.1651 14.4736 62.1283 14.0107 62.7853 13.0848L64.7789 14.2496C63.6888 15.8773 62.0536 16.6912 59.8733 16.6912C58.0664 16.6912 56.5955 16.1387 55.4605 15.0336C54.3405 13.9136 53.7805 12.5024 53.7805 10.8C53.7805 9.1424 54.333 7.74613 55.4381 6.6112C56.5283 5.47626 57.9469 4.9088 59.6941 4.9088C61.3218 4.9088 62.6659 5.48373 63.7261 6.6336C64.7864 7.78346 65.3165 9.17973 65.3165 10.8224C65.3165 11.1211 65.2867 11.4571 65.2269 11.8304ZM56.2893 9.8592H62.8749C62.7107 8.97813 62.3373 8.29867 61.7549 7.8208C61.1875 7.34293 60.493 7.104 59.6717 7.104C58.7757 7.104 58.0291 7.3504 57.4317 7.8432C56.8344 8.336 56.4536 9.008 56.2893 9.8592Z" fill="#4165FF"/>
<path d="M70.0765 8.2912C70.0765 8.63466 70.2557 8.9184 70.6141 9.1424C70.9725 9.35147 71.4952 9.55306 72.1821 9.7472C72.7048 9.86666 73.1602 9.9936 73.5485 10.128C73.9368 10.2624 74.3474 10.464 74.7805 10.7328C75.2136 10.9867 75.5421 11.3301 75.7661 11.7632C76.0051 12.1813 76.117 12.6741 76.1021 13.2416C76.1021 14.3168 75.684 15.1605 74.8477 15.7728C74.0115 16.3851 72.9736 16.6912 71.7341 16.6912C70.629 16.6912 69.6808 16.4597 68.8893 15.9968C68.0978 15.5339 67.5229 14.8917 67.1645 14.0704L69.2477 12.8608C69.621 13.936 70.4498 14.4736 71.7341 14.4736C73.0034 14.4736 73.6381 14.0555 73.6381 13.2192C73.6381 12.6069 72.9288 12.1291 71.5101 11.7856C70.9725 11.6512 70.517 11.5168 70.1437 11.3824C69.7853 11.248 69.3821 11.0539 68.9341 10.8C68.501 10.5461 68.1651 10.2101 67.9261 9.792C67.7021 9.37387 67.5976 8.88853 67.6125 8.336C67.6125 7.3056 68.0008 6.4768 68.7773 5.8496C69.5688 5.2224 70.5469 4.9088 71.7117 4.9088C72.6376 4.9088 73.4589 5.11786 74.1757 5.536C74.9074 5.9392 75.4674 6.50666 75.8557 7.2384L73.8173 8.3808C73.444 7.5296 72.7421 7.104 71.7117 7.104C71.2338 7.104 70.8381 7.20853 70.5245 7.4176C70.2258 7.62666 70.0765 7.91786 70.0765 8.2912Z" fill="#4165FF"/>
<path d="M80.6194 8.2912C80.6194 8.63466 80.7986 8.9184 81.157 9.1424C81.5154 9.35147 82.0381 9.55306 82.725 9.7472C83.2477 9.86666 83.7031 9.9936 84.0914 10.128C84.4797 10.2624 84.8903 10.464 85.3234 10.7328C85.7565 10.9867 86.085 11.3301 86.309 11.7632C86.5479 12.1813 86.6599 12.6741 86.645 13.2416C86.645 14.3168 86.2269 15.1605 85.3906 15.7728C84.5543 16.3851 83.5165 16.6912 82.277 16.6912C81.1719 16.6912 80.2237 16.4597 79.4322 15.9968C78.6407 15.5339 78.0658 14.8917 77.7074 14.0704L79.7906 12.8608C80.1639 13.936 80.9927 14.4736 82.277 14.4736C83.5463 14.4736 84.181 14.0555 84.181 13.2192C84.181 12.6069 83.4717 12.1291 82.053 11.7856C81.5154 11.6512 81.0599 11.5168 80.6866 11.3824C80.3282 11.248 79.925 11.0539 79.477 10.8C79.0439 10.5461 78.7079 10.2101 78.469 9.792C78.245 9.37387 78.1405 8.88853 78.1554 8.336C78.1554 7.3056 78.5437 6.4768 79.3202 5.8496C80.1117 5.2224 81.0898 4.9088 82.2546 4.9088C83.1805 4.9088 84.0018 5.11786 84.7186 5.536C85.4503 5.9392 86.0103 6.50666 86.3986 7.2384L84.3602 8.3808C83.9869 7.5296 83.285 7.104 82.2546 7.104C81.7767 7.104 81.381 7.20853 81.0674 7.4176C80.7687 7.62666 80.6194 7.91786 80.6194 8.2912Z" fill="#4165FF"/>
</svg>
