<svg width="49" height="17" viewBox="0 0 49 17" fill="none" xmlns="http://www.w3.org/2000/svg">
<path d="M0.936005 0.720001H12.36V3.184H7.9472V16.4H5.3712V3.184H0.936005V0.720001Z" fill="#333333"/>
<path d="M21.862 6.7904V5.2H24.2812V16.4H21.862V14.7872C20.951 16.0565 19.6444 16.6912 17.942 16.6912C16.4038 16.6912 15.0897 16.1237 13.9996 14.9888C12.9094 13.8539 12.3644 12.4576 12.3644 10.8C12.3644 9.1424 12.9094 7.74614 13.9996 6.6112C15.0897 5.47627 16.4038 4.9088 17.942 4.9088C19.6444 4.9088 20.951 5.536 21.862 6.7904ZM15.7916 13.376C16.4636 14.048 17.3073 14.384 18.3228 14.384C19.3382 14.384 20.182 14.048 20.854 13.376C21.526 12.6891 21.862 11.8304 21.862 10.8C21.862 9.7696 21.526 8.9184 20.854 8.2464C20.182 7.55947 19.3382 7.216 18.3228 7.216C17.3073 7.216 16.4636 7.55947 15.7916 8.2464C15.1196 8.9184 14.7836 9.7696 14.7836 10.8C14.7836 11.8155 15.1196 12.6741 15.7916 13.376Z" fill="#333333"/>
<path d="M30.1041 8.2912C30.1041 8.63467 30.2833 8.9184 30.6417 9.1424C31.0001 9.35147 31.5228 9.55307 32.2097 9.7472C32.7324 9.86667 33.1879 9.9936 33.5761 10.128C33.9644 10.2624 34.3751 10.464 34.8081 10.7328C35.2412 10.9867 35.5697 11.3301 35.7937 11.7632C36.0327 12.1813 36.1447 12.6741 36.1297 13.2416C36.1297 14.3168 35.7116 15.1605 34.8753 15.7728C34.0391 16.3851 33.0012 16.6912 31.7617 16.6912C30.6567 16.6912 29.7084 16.4597 28.9169 15.9968C28.1255 15.5339 27.5505 14.8917 27.1921 14.0704L29.2753 12.8608C29.6487 13.936 30.4775 14.4736 31.7617 14.4736C33.0311 14.4736 33.6657 14.0555 33.6657 13.2192C33.6657 12.6069 32.9564 12.1291 31.5377 11.7856C31.0001 11.6512 30.5447 11.5168 30.1713 11.3824C29.8129 11.248 29.4097 11.0539 28.9617 10.8C28.5287 10.5461 28.1927 10.2101 27.9537 9.792C27.7297 9.37387 27.6252 8.88854 27.6401 8.336C27.6401 7.3056 28.0284 6.4768 28.8049 5.8496C29.5964 5.2224 30.5745 4.9088 31.7393 4.9088C32.6652 4.9088 33.4865 5.11787 34.2033 5.536C34.9351 5.9392 35.4951 6.50667 35.8833 7.2384L33.8449 8.3808C33.4716 7.5296 32.7697 7.104 31.7393 7.104C31.2615 7.104 30.8657 7.20854 30.5521 7.4176C30.2535 7.62667 30.1041 7.91787 30.1041 8.2912Z" fill="#333333"/>
<path d="M43.8147 10.688L48.9219 16.4H46.0323L41.4403 11.2256V16.4H39.0211V0.720001H41.4403V10.1504L45.7859 5.2H48.7427L43.8147 10.688Z" fill="#333333"/>
</svg>
